<svg width="429" height="148" viewBox="0 0 429 148" fill="none" xmlns="http://www.w3.org/2000/svg">
<path d="M194.957 62.696C194.753 60.6335 193.875 59.0312 192.324 57.8892C190.773 56.7472 188.668 56.1761 186.009 56.1761C184.202 56.1761 182.676 56.4318 181.432 56.9432C180.188 57.4375 179.233 58.1278 178.568 59.0142C177.92 59.9006 177.597 60.9062 177.597 62.0312C177.563 62.9688 177.759 63.7869 178.185 64.4858C178.628 65.1847 179.233 65.7898 180 66.3011C180.767 66.7955 181.653 67.2301 182.659 67.6051C183.665 67.9631 184.739 68.2699 185.881 68.5256L190.585 69.6506C192.869 70.1619 194.966 70.8437 196.875 71.696C198.784 72.5483 200.438 73.5966 201.835 74.8409C203.233 76.0852 204.315 77.5511 205.082 79.2386C205.866 80.9261 206.267 82.8608 206.284 85.0426C206.267 88.2472 205.449 91.0256 203.83 93.3778C202.227 95.7131 199.909 97.5284 196.875 98.8239C193.858 100.102 190.219 100.741 185.957 100.741C181.73 100.741 178.048 100.094 174.912 98.7983C171.793 97.5028 169.355 95.5852 167.599 93.0455C165.861 90.4886 164.949 87.3267 164.864 83.5597H175.577C175.696 85.3153 176.199 86.7812 177.085 87.9574C177.989 89.1165 179.19 89.9943 180.69 90.5909C182.207 91.1705 183.92 91.4602 185.83 91.4602C187.705 91.4602 189.332 91.1875 190.713 90.642C192.111 90.0966 193.193 89.3381 193.96 88.3665C194.727 87.3949 195.111 86.2784 195.111 85.017C195.111 83.8409 194.761 82.8523 194.062 82.0511C193.381 81.25 192.375 80.5682 191.045 80.0057C189.733 79.4432 188.122 78.9318 186.213 78.4716L180.511 77.0398C176.097 75.9659 172.611 74.2869 170.054 72.0028C167.497 69.7187 166.227 66.642 166.244 62.7727C166.227 59.6023 167.071 56.8324 168.776 54.4631C170.497 52.0938 172.858 50.2443 175.858 48.9148C178.858 47.5852 182.267 46.9205 186.085 46.9205C189.972 46.9205 193.364 47.5852 196.261 48.9148C199.176 50.2443 201.443 52.0938 203.062 54.4631C204.682 56.8324 205.517 59.5767 205.568 62.696H194.957ZM231.424 100.767C227.384 100.767 223.907 99.9489 220.992 98.3125C218.094 96.6591 215.862 94.3239 214.293 91.3068C212.725 88.2727 211.941 84.6847 211.941 80.5426C211.941 76.5028 212.725 72.9574 214.293 69.9062C215.862 66.8551 218.069 64.4773 220.915 62.7727C223.779 61.0682 227.137 60.2159 230.989 60.2159C233.58 60.2159 235.992 60.6335 238.225 61.4688C240.475 62.2869 242.435 63.5227 244.106 65.1761C245.793 66.8295 247.106 68.9091 248.043 71.4148C248.981 73.9034 249.45 76.8182 249.45 80.1591V83.1506H216.288V76.4006H239.197C239.197 74.8324 238.856 73.4432 238.174 72.233C237.492 71.0227 236.546 70.0767 235.336 69.3949C234.143 68.696 232.754 68.3466 231.168 68.3466C229.515 68.3466 228.049 68.7301 226.771 69.4972C225.509 70.2472 224.521 71.2614 223.805 72.5398C223.089 73.8011 222.722 75.2074 222.705 76.7585V83.1761C222.705 85.1193 223.063 86.7983 223.779 88.2131C224.512 89.6278 225.543 90.7188 226.873 91.4858C228.202 92.2528 229.779 92.6364 231.603 92.6364C232.813 92.6364 233.921 92.4659 234.927 92.125C235.933 91.7841 236.793 91.2727 237.509 90.5909C238.225 89.9091 238.771 89.0739 239.146 88.0852L249.219 88.75C248.708 91.1705 247.66 93.2841 246.075 95.0909C244.506 96.8807 242.478 98.2784 239.989 99.2841C237.518 100.273 234.663 100.767 231.424 100.767ZM267.45 77.2955V100H256.558V60.7273H266.938V67.6562H267.398C268.268 65.3722 269.725 63.5653 271.771 62.2358C273.816 60.8892 276.296 60.2159 279.211 60.2159C281.938 60.2159 284.316 60.8125 286.344 62.0057C288.373 63.1989 289.95 64.9034 291.075 67.1193C292.2 69.3182 292.762 71.9432 292.762 74.9943V100H281.87V76.9375C281.887 74.5341 281.273 72.6591 280.029 71.3125C278.785 69.9489 277.072 69.267 274.89 69.267C273.424 69.267 272.129 69.5824 271.004 70.2131C269.896 70.8437 269.026 71.7642 268.396 72.9744C267.782 74.1676 267.467 75.608 267.45 77.2955ZM315.818 100.639C312.835 100.639 310.134 99.8722 307.713 98.3381C305.31 96.7869 303.401 94.5114 301.986 91.5114C300.588 88.4943 299.889 84.7955 299.889 80.4148C299.889 75.9148 300.614 72.1733 302.062 69.1903C303.511 66.1903 305.438 63.9489 307.841 62.4659C310.261 60.9659 312.912 60.2159 315.793 60.2159C317.991 60.2159 319.824 60.5909 321.29 61.3409C322.773 62.0739 323.966 62.9943 324.869 64.1023C325.79 65.1932 326.489 66.267 326.966 67.3239H327.298V47.6364H338.165V100H327.426V93.7102H326.966C326.455 94.8011 325.73 95.8835 324.793 96.9574C323.872 98.0142 322.67 98.892 321.188 99.5909C319.722 100.29 317.932 100.639 315.818 100.639ZM319.27 91.9716C321.026 91.9716 322.509 91.4943 323.719 90.5398C324.946 89.5682 325.884 88.2131 326.531 86.4744C327.196 84.7358 327.528 82.6989 327.528 80.3636C327.528 78.0284 327.205 76 326.557 74.2784C325.909 72.5568 324.972 71.2273 323.744 70.2898C322.517 69.3523 321.026 68.8835 319.27 68.8835C317.48 68.8835 315.972 69.3693 314.744 70.3409C313.517 71.3125 312.588 72.6591 311.957 74.3807C311.327 76.1023 311.011 78.0966 311.011 80.3636C311.011 82.6477 311.327 84.6676 311.957 86.4233C312.605 88.1619 313.534 89.5256 314.744 90.5142C315.972 91.4858 317.48 91.9716 319.27 91.9716ZM363.784 100V60.7273H374.676V100H363.784ZM369.256 55.6648C367.636 55.6648 366.247 55.1278 365.088 54.054C363.946 52.9631 363.375 51.6591 363.375 50.142C363.375 48.642 363.946 47.3551 365.088 46.2812C366.247 45.1903 367.636 44.6449 369.256 44.6449C370.875 44.6449 372.256 45.1903 373.398 46.2812C374.557 47.3551 375.136 48.642 375.136 50.142C375.136 51.6591 374.557 52.9631 373.398 54.054C372.256 55.1278 370.875 55.6648 369.256 55.6648ZM404.29 60.7273V68.9091H380.64V60.7273H404.29ZM386.009 51.3182H396.901V87.9318C396.901 88.9375 397.055 89.7216 397.362 90.2841C397.668 90.8295 398.094 91.2131 398.64 91.4347C399.202 91.6562 399.85 91.767 400.583 91.767C401.094 91.767 401.606 91.7244 402.117 91.6392C402.629 91.5369 403.021 91.4602 403.293 91.4091L405.006 99.5142C404.461 99.6847 403.694 99.8807 402.705 100.102C401.717 100.341 400.515 100.486 399.1 100.537C396.475 100.639 394.174 100.29 392.197 99.4886C390.237 98.6875 388.711 97.4432 387.62 95.7557C386.529 94.0682 385.992 91.9375 386.009 89.3636V51.3182ZM417.752 100.665C416.065 100.665 414.616 100.068 413.406 98.875C412.212 97.6648 411.616 96.2159 411.616 94.5284C411.616 92.858 412.212 91.4261 413.406 90.233C414.616 89.0398 416.065 88.4432 417.752 88.4432C419.388 88.4432 420.82 89.0398 422.048 90.233C423.275 91.4261 423.888 92.858 423.888 94.5284C423.888 95.6534 423.599 96.6847 423.019 97.6222C422.457 98.5426 421.715 99.2841 420.795 99.8466C419.874 100.392 418.86 100.665 417.752 100.665Z" fill="black"/>
<path d="M20.3062 32.6395C21.4221 31.5235 22.9638 30.8333 24.6667 30.8333H123.333C125.036 30.8333 126.578 31.5235 127.694 32.6395M20.3062 32.6395C19.1902 33.7555 18.5 35.2971 18.5 37V111C18.5 114.406 21.2609 117.167 24.6667 117.167H86.3333M20.3062 32.6395L30.8333 43.167M127.694 32.6395C128.81 33.7555 129.5 35.2971 129.5 37V111C129.5 114.406 126.739 117.167 123.333 117.167H111M127.694 32.6395L82.7209 77.6118C77.9041 82.4286 70.0953 82.4286 65.2785 77.6118L49.3333 61.6666" stroke="black" stroke-width="10" stroke-linecap="round" stroke-linejoin="round"/>
</svg>
